<svg width="0" height="0" class="hidden">
  <symbol xmlns="http://www.w3.org/2000/svg" viewBox="0 0 480 480" id="24-hours">
    <path d="M472 432h-24V280a8 8 0 0 0-14.552-4.584l-112 160A7.999 7.999 0 0 0 328 448h104v24a8 8 0 0 0 16 0v-24h24a8 8 0 0 0 0-16zm-40 0h-88.64L432 305.376V432z"></path>
    <path d="M328 464h-94.712l88.056-103.688c.2-.238.387-.486.56-.744 16.566-24.518 11.048-57.713-12.56-75.552-28.705-20.625-68.695-14.074-89.319 14.631A63.997 63.997 0 0 0 208 336a8 8 0 0 0 16 0c-.003-26.51 21.486-48.002 47.995-48.005A47.999 47.999 0 0 1 300 297.008c16.537 12.671 20.388 36.007 8.8 53.32l-98.896 116.496A8 8 0 0 0 216 480h112a8 8 0 0 0 0-16z"></path>
    <path d="M216.176 424.152a8 8 0 0 0-7.693-8.296h-.003C104.11 411.982 20.341 328.363 16.28 224H48a8 8 0 0 0 0-16H16.28C20.283 103.821 103.82 20.287 208 16.288V40a8 8 0 0 0 16 0V16.288c102.754 3.974 185.686 85.34 191.616 188l-31.2-31.2a8 8 0 0 0-11.312 11.312l44.656 44.656a7.863 7.863 0 0 0 3.152 2.296c.313.094.631.172.952.232a7.914 7.914 0 0 0 1.696.408h.456a7.708 7.708 0 0 0 1.792-.352c.329-.04.655-.101.976-.184a7.88 7.88 0 0 0 2.888-1.808l45.264-45.248a8 8 0 0 0-11.312-11.312l-31.976 31.952C425.933 90.37 331.38.281 216.568.112 216.368.104 216.2 0 216 0s-.368.104-.568.112C96.582.275.275 96.582.112 215.432c0 .2-.112.368-.112.568s.104.368.112.568c.199 115.917 91.939 210.97 207.776 215.28h.296a8 8 0 0 0 7.992-7.696z"></path>
    <path d="M323.48 108.52a8 8 0 0 0-11.312 0L226.2 194.48a25.055 25.055 0 0 0-20.408 0l-40.704-40.704a8 8 0 0 0-11.312 11.312l40.624 40.624c-5.704 11.94-.648 26.244 11.293 31.947a23.96 23.96 0 0 0 27.275-4.683 23.737 23.737 0 0 0 4.624-27.256l85.888-85.888a8 8 0 0 0 0-11.312zM221.658 221.654l-.002.002a8.185 8.185 0 0 1-11.312 0 8 8 0 1 1 11.314-.002z"></path>
  </symbol>
  <symbol viewBox="-42 0 512 512.001" xmlns="http://www.w3.org/2000/svg" id="account">
    <path d="M210.352 246.633c33.882 0 63.218-12.153 87.195-36.13 23.969-23.972 36.125-53.304 36.125-87.19 0-33.876-12.152-63.211-36.129-87.192C273.566 12.152 244.23 0 210.352 0c-33.887 0-63.22 12.152-87.192 36.125s-36.129 53.309-36.129 87.188c0 33.886 12.156 63.222 36.13 87.195 23.98 23.969 53.316 36.125 87.19 36.125zM144.379 57.34c18.394-18.395 39.973-27.336 65.973-27.336 25.996 0 47.578 8.941 65.976 27.336 18.395 18.398 27.34 39.98 27.34 65.972 0 26-8.945 47.579-27.34 65.977-18.398 18.399-39.98 27.34-65.976 27.34-25.993 0-47.57-8.945-65.973-27.34-18.399-18.394-27.344-39.976-27.344-65.976 0-25.993 8.945-47.575 27.344-65.973zm281.75 336.363c-.692-9.976-2.09-20.86-4.149-32.351-2.078-11.579-4.753-22.524-7.957-32.528-3.312-10.34-7.808-20.55-13.375-30.336-5.77-10.156-12.55-19-20.16-26.277-7.957-7.613-17.699-13.734-28.965-18.2-11.226-4.44-23.668-6.69-36.976-6.69-5.227 0-10.281 2.144-20.043 8.5a2711.03 2711.03 0 0 1-20.879 13.46c-6.707 4.274-15.793 8.278-27.016 11.903-10.949 3.543-22.066 5.34-33.043 5.34-10.968 0-22.086-1.797-33.043-5.34-11.21-3.622-20.3-7.625-26.996-11.899a2853.13 2853.13 0 0 1-20.898-13.469c-9.754-6.355-14.809-8.5-20.035-8.5-13.313 0-25.75 2.254-36.973 6.7-11.258 4.457-21.004 10.578-28.969 18.199-7.609 7.281-14.39 16.12-20.156 26.273-5.558 9.785-10.058 19.992-13.371 30.34-3.2 10.004-5.875 20.945-7.953 32.524-2.063 11.476-3.457 22.363-4.149 32.363C.343 403.492 0 413.668 0 423.949c0 26.727 8.496 48.363 25.25 64.32C41.797 504.017 63.688 512 90.316 512h246.532c26.62 0 48.511-7.984 65.062-23.73 16.758-15.946 25.254-37.59 25.254-64.325-.004-10.316-.351-20.492-1.035-30.242zm-44.906 72.828c-10.934 10.406-25.45 15.465-44.38 15.465H90.317c-18.933 0-33.449-5.059-44.379-15.46-10.722-10.208-15.933-24.141-15.933-42.587 0-9.594.316-19.066.95-28.16.616-8.922 1.878-18.723 3.75-29.137 1.847-10.285 4.198-19.937 6.995-28.675 2.684-8.38 6.344-16.676 10.883-24.668 4.332-7.618 9.316-14.153 14.816-19.418 5.145-4.926 11.63-8.957 19.27-11.98 7.066-2.798 15.008-4.329 23.629-4.56 1.05.56 2.922 1.626 5.953 3.602 6.168 4.02 13.277 8.606 21.137 13.625 8.86 5.649 20.273 10.75 33.91 15.152 13.941 4.508 28.16 6.797 42.273 6.797 14.114 0 28.336-2.289 42.27-6.793 13.648-4.41 25.058-9.507 33.93-15.164 8.043-5.14 14.953-9.593 21.12-13.617 3.032-1.973 4.903-3.043 5.954-3.601 8.625.23 16.566 1.761 23.636 4.558 7.637 3.024 14.122 7.059 19.266 11.98 5.5 5.262 10.484 11.798 14.816 19.423 4.543 7.988 8.208 16.289 10.887 24.66 2.801 8.75 5.156 18.398 7 28.675 1.867 10.434 3.133 20.239 3.75 29.145v.008c.637 9.058.957 18.527.961 28.148-.004 18.45-5.215 32.38-15.937 42.582zm0 0"></path>
  </symbol>
  <symbol xmlns="http://www.w3.org/2000/svg" viewBox="0 0 512 512" id="delivery-truck">
    <path d="M448 287.791a8 8 0 0 0-8 8v56.056h-12.728c-3.137-27.747-28.173-47.697-55.919-44.561-23.426 2.648-41.912 21.135-44.561 44.561H160v-232h280v25.16a8 8 0 0 0 16 0v-33.16a8 8 0 0 0-8-8H152a8 8 0 0 0-8 8v8H52.384c-20.083.026-36.358 16.3-36.384 36.384v11.616a8 8 0 0 0 8 8h9.304l-6.104 73.32C11.225 253.325.056 267.723 0 284.231v67.616a8 8 0 0 0 8 8h16.2c2.193 28.608 27.163 50.022 55.771 47.829 25.56-1.959 45.869-22.269 47.829-47.829.072 0 .128.04.2.04h16a8 8 0 0 0 8 8h175.52c5.699 27.345 32.487 44.892 59.832 39.193a50.575 50.575 0 0 0 39.192-39.193H448a8 8 0 0 0 8-8v-64.096a8 8 0 0 0-8-8zM76 391.847c-19.882 0-36-16.118-36-36s16.118-36 36-36 36 16.118 36 36c-.022 19.873-16.127 35.978-36 36zm68-48h-16a7.336 7.336 0 0 0-1.384.28c-6.434-27.953-34.31-45.397-62.262-38.963a51.935 51.935 0 0 0-38.898 38.683H16v-59.616c.013-11.252 9.132-20.371 20.384-20.384H144v80zm0-96H43.36l6-72H144v72zm0-88H32v-3.616c.013-11.252 9.132-20.371 20.384-20.384H144v24zm267.555 199.68c-1.028 18.302-16.185 32.607-34.515 32.576h-.008c-16.785-.037-31.117-12.126-33.984-28.664a7.2 7.2 0 0 0-.408-7.784c1.069-19.03 17.363-33.591 36.394-32.522 19.03 1.069 33.591 17.363 32.521 36.394z"></path>
    <path d="M440 167.847H328a8 8 0 0 0 0 16h112a8 8 0 0 0 0-16zm16 88H280a8 8 0 0 0 0 16h176a8 8 0 0 0 0-16zm-16-48h-88a8 8 0 0 0 0 16h88a8 8 0 0 0 0-16zm32-24h16a8 8 0 0 0 0-16h-16a8 8 0 0 0 0 16zm24 72h-16a8 8 0 0 0 0 16h16a8 8 0 0 0 0-16zm8-48h-32a8 8 0 0 0 0 16h32a8 8 0 0 0 0-16z"></path>
  </symbol>
  <symbol viewBox="0 1 512 511" xmlns="http://www.w3.org/2000/svg" id="exchange">
    <path d="M506.813 111.23L307.405 1.734a10.005 10.005 0 0 0-9.625 0l-75.16 41.27a10.029 10.029 0 0 0-4.293 2.36L98.378 111.23a9.994 9.994 0 0 0-5.187 8.766v132.43c-20.234 6.328-38.777 17.488-54.195 32.91C-1.19 325.52-11.438 386.809 13.5 437.844c2.422 4.96 8.41 7.02 13.371 4.594 4.965-2.426 7.02-8.415 4.598-13.375-21.188-43.364-12.48-95.438 21.668-129.586 21.355-21.356 49.746-33.118 79.945-33.118s58.59 11.762 79.945 33.118c21.352 21.351 33.114 49.742 33.114 79.941s-11.762 58.59-33.118 79.945c-34.148 34.149-86.222 42.856-129.585 21.668-4.961-2.426-10.95-.367-13.372 4.594-2.425 4.965-.37 10.953 4.594 13.375a132.667 132.667 0 0 0 58.336 13.5c34.543-.004 68.625-13.45 94.172-38.996 11.715-11.715 20.973-25.23 27.523-39.922l43.09 23.66a9.987 9.987 0 0 0 9.625 0L506.812 347.75a10.003 10.003 0 0 0 5.188-8.766v-69.496c0-5.523-4.477-10-10-10s-10 4.477-10 10v63.578l-179.375 98.497V235.39l59.2-32.508v51.531a9.996 9.996 0 0 0 10 10 9.99 9.99 0 0 0 4.82-1.238l42.73-23.52a9.992 9.992 0 0 0 5.176-8.758v-62.46L492 136.895v52.597c0 5.524 4.477 10 10 10s10-4.476 10-10v-69.496a9.998 9.998 0 0 0-5.188-8.766zm-204.22-89.324l178.63 98.09-56.348 30.942-178.629-98.09zm0 196.176l-178.628-98.086 58.414-32.078 178.633 98.086zm79.192-43.484L203.156 76.512l22.313-12.254 178.633 98.086zM227.168 285.336c-25.133-25.133-58.547-38.973-94.086-38.973-6.723 0-13.363.496-19.89 1.469V136.895l179.437 98.53v196.173l-31.145-17.102c3.067-11.289 4.653-23.062 4.653-35.078 0-35.54-13.84-68.953-38.969-94.082zm187.387-60.348l-22.73 12.512v-45.598l22.73-12.48zm0 0"></path>
    <path d="M502 219.441a10.08 10.08 0 0 0-7.07 2.93 10.073 10.073 0 0 0-2.93 7.07 10.07 10.07 0 0 0 2.93 7.067c1.86 1.863 4.441 2.93 7.07 2.93s5.21-1.067 7.07-2.93a10.07 10.07 0 0 0 2.93-7.067c0-2.632-1.07-5.21-2.93-7.07a10.08 10.08 0 0 0-7.07-2.93zM99.457 389.418a9.973 9.973 0 0 0 7.07-2.926c3.907-3.906 3.907-10.238 0-14.144l-6.925-6.93h59.101c14.336 0 26 11.664 26 26s-11.664 26-26 26h-35.02c-5.523 0-10 4.477-10 10 0 5.52 4.477 9.996 10 9.996h35.02c25.363 0 46-20.633 46-45.996s-20.637-45.996-46-45.996H99.602l6.925-6.93c3.907-3.906 3.907-10.238 0-14.144-3.902-3.903-10.234-3.903-14.14 0l-24 24c-3.903 3.906-3.903 10.238 0 14.144l24 23.996a9.968 9.968 0 0 0 7.07 2.93zM46.074 476.45a9.953 9.953 0 0 1-7.64-3.56l-.02-.023c-3.555-4.226-3.008-10.531 1.219-14.086 4.226-3.558 10.535-3.011 14.09 1.215 3.55 4.23 3.015 10.547-1.211 14.102a9.979 9.979 0 0 1-6.438 2.351zm0 0"></path>
  </symbol>
  <symbol xmlns="http://www.w3.org/2000/svg" viewBox="0 0 511.992 511.992" id="eye">
    <path d="M510.096 249.937c-4.032-5.867-100.928-143.275-254.101-143.275-131.435 0-248.555 136.619-253.483 142.443-3.349 3.968-3.349 9.792 0 13.781C7.44 268.71 124.56 405.329 255.995 405.329S504.549 268.71 509.477 262.886c3.094-3.669 3.371-8.981.619-12.949zM255.995 383.996c-105.365 0-205.547-100.48-230.997-128 25.408-27.541 125.483-128 230.997-128 123.285 0 210.304 100.331 231.552 127.424-24.534 26.645-125.291 128.576-231.552 128.576z"></path>
    <path d="M255.995 170.662c-47.061 0-85.333 38.272-85.333 85.333s38.272 85.333 85.333 85.333 85.333-38.272 85.333-85.333-38.272-85.333-85.333-85.333zm0 149.334c-35.285 0-64-28.715-64-64s28.715-64 64-64 64 28.715 64 64-28.715 64-64 64z"></path>
  </symbol>
  <symbol viewBox="0 -28 512.001 512" xmlns="http://www.w3.org/2000/svg" id="heart">
    <path d="M256 455.516a30.022 30.022 0 0 1-19.793-7.438c-20.684-18.086-40.625-35.082-58.219-50.074l-.09-.078c-51.582-43.957-96.125-81.918-127.117-119.313C16.137 236.81 0 197.172 0 153.871c0-42.07 14.426-80.883 40.617-109.293C67.121 15.832 103.488 0 143.031 0c29.555 0 56.621 9.344 80.446 27.77C235.5 37.07 246.398 48.453 256 61.73c9.605-13.277 20.5-24.66 32.527-33.96C312.352 9.344 339.418 0 368.973 0c39.539 0 75.91 15.832 102.414 44.578C497.578 72.988 512 111.801 512 153.871c0 43.3-16.133 82.938-50.777 124.738-30.993 37.399-75.532 75.356-127.106 119.309-17.625 15.016-37.597 32.039-58.328 50.168a30.046 30.046 0 0 1-19.789 7.43zM143.031 29.992c-31.066 0-59.605 12.399-80.367 34.914-21.07 22.856-32.676 54.45-32.676 88.965 0 36.418 13.535 68.988 43.883 105.606 29.332 35.394 72.961 72.574 123.477 115.625l.093.078c17.66 15.05 37.68 32.113 58.516 50.332 20.961-18.254 41.012-35.344 58.707-50.418 50.512-43.051 94.137-80.223 123.469-115.617 30.344-36.618 43.879-69.188 43.879-105.606 0-34.516-11.606-66.11-32.676-88.965-20.758-22.515-49.3-34.914-80.363-34.914-22.758 0-43.653 7.235-62.102 21.5-16.441 12.719-27.894 28.797-34.61 40.047-3.452 5.785-9.53 9.238-16.261 9.238s-12.809-3.453-16.262-9.238c-6.71-11.25-18.164-27.328-34.61-40.047-18.448-14.265-39.343-21.5-62.097-21.5zm0 0"></path>
  </symbol>
  <symbol xmlns="http://www.w3.org/2000/svg" viewBox="0 0 512 512" id="search">
    <path d="M508.875 493.792L353.089 338.005c32.358-35.927 52.245-83.296 52.245-135.339C405.333 90.917 314.417 0 202.667 0S0 90.917 0 202.667s90.917 202.667 202.667 202.667c52.043 0 99.411-19.887 135.339-52.245l155.786 155.786a10.634 10.634 0 0 0 7.542 3.125c2.729 0 5.458-1.042 7.542-3.125 4.166-4.167 4.166-10.917-.001-15.083zM202.667 384c-99.979 0-181.333-81.344-181.333-181.333S102.688 21.333 202.667 21.333 384 102.677 384 202.667 302.646 384 202.667 384z"></path>
  </symbol>
  <symbol xmlns="http://www.w3.org/2000/svg" viewBox="0 0 512.001 512.001" id="shopping-cart">
    <path d="M503.142 79.784c-7.303-8.857-18.128-13.933-29.696-13.933H176.37c-6.085 0-11.023 4.938-11.023 11.023s4.938 11.023 11.023 11.023h297.07c5.032 0 9.541 2.1 12.688 5.914 3.197 3.88 4.475 8.995 3.511 13.972l-44.054 220.282c-1.709 7.871-8.383 13.366-16.232 13.366h-245.03L83.158 36.854C77.69 21.234 62.886 10.74 45.932 10.74h-.017c-14.38.496-28.963.491-32.535.248-3.555-.772-7.397.22-10.152 2.976-4.305 4.305-4.305 11.282 0 15.587 3.412 3.412 4.564 4.564 43.068 3.23 7.22 0 13.674 4.564 15.995 11.188l103.618 311.962a11.025 11.025 0 0 0 10.461 7.545h252.982c18.31 0 33.841-12.638 37.815-30.909l44.109-220.525c2.227-11.529-.732-23.285-8.134-32.258z"></path>
    <path d="M424.392 424.11H223.77c-6.785 0-13.162-4.674-15.46-11.233l-21.495-63.935c-1.94-5.771-8.207-8.885-13.961-6.934-5.771 1.935-8.874 8.19-6.934 13.961l21.539 64.061c5.473 15.625 20.062 26.119 36.31 26.119h200.622c6.085 0 11.023-4.933 11.023-11.018s-4.937-11.021-11.022-11.021z"></path>
    <path d="M231.486 424.104c-21.275 0-38.581 17.312-38.581 38.581s17.306 38.581 38.581 38.581 38.581-17.312 38.581-38.581-17.306-38.581-38.581-38.581zm0 55.116c-9.116 0-16.535-7.419-16.535-16.535s7.419-16.535 16.535-16.535 16.535 7.419 16.535 16.535c0 9.117-7.419 16.535-16.535 16.535zm192.906-55.116c-21.269 0-38.581 17.312-38.581 38.581s17.312 38.581 38.581 38.581c21.269 0 38.581-17.312 38.581-38.581s-17.312-38.581-38.581-38.581zm0 55.116c-9.116 0-16.535-7.419-16.535-16.535s7.419-16.535 16.535-16.535 16.535 7.419 16.535 16.535c0 9.117-7.419 16.535-16.535 16.535z"></path>
  </symbol>
  <symbol viewBox="0 -10 511.987 511" xmlns="http://www.w3.org/2000/svg" id="star">
    <path d="M114.594 491.14c-5.61 0-11.18-1.75-15.934-5.187a27.223 27.223 0 0 1-10.582-28.094l32.938-145.09L9.312 214.81a27.188 27.188 0 0 1-7.976-28.907 27.208 27.208 0 0 1 23.402-18.71l147.797-13.419L230.97 17.027C235.277 6.98 245.089.492 255.992.492s20.715 6.488 25.024 16.512l58.433 136.77 147.774 13.417c10.882.98 20.054 8.344 23.425 18.711 3.372 10.368.254 21.739-7.957 28.907L390.988 312.75l32.938 145.086c2.414 10.668-1.727 21.7-10.578 28.098-8.832 6.398-20.61 6.89-29.91 1.3l-127.446-76.16-127.445 76.203c-4.309 2.559-9.11 3.864-13.953 3.864zm141.398-112.874c4.844 0 9.64 1.3 13.953 3.859l120.278 71.938-31.086-136.942a27.21 27.21 0 0 1 8.62-26.516l105.473-92.5-139.543-12.671a27.18 27.18 0 0 1-22.613-16.493L255.992 39.895 200.844 168.96c-3.883 9.195-12.524 15.512-22.547 16.43L38.734 198.062l105.47 92.5c7.554 6.614 10.858 16.77 8.62 26.54l-31.062 136.937 120.277-71.914c4.309-2.559 9.11-3.86 13.953-3.86zm-84.586-221.848s0 .023-.023.043zm169.13-.063l.023.043c0-.023 0-.023-.024-.043zm0 0"></path>
  </symbol>
</svg>